<?xml version="1.0" encoding="UTF-8"?>
<svg width="46px" height="46px" viewBox="0 0 46 46" version="1.1" xmlns="http://www.w3.org/2000/svg" xmlns:xlink="http://www.w3.org/1999/xlink">
    <!-- Generator: Sketch 64 (93537) - https://sketch.com -->
    <title>Group 17</title>
    <desc>Created with Sketch.</desc>
    <defs>
        <polygon id="path-1" points="0 0 45.9998516 0 45.9998516 45.9997032 0 45.9997032"></polygon>
        <polygon id="path-3" points="0 0 45.9999258 0 45.9999258 45.9994065 0 45.9994065"></polygon>
    </defs>
    <g id="Page-1" stroke="none" stroke-width="1" fill="none" fill-rule="evenodd">
        <g id="Contact-Us" transform="translate(-644.000000, -818.000000)">
            <g id="Group-2" transform="translate(260.000000, 818.000000)">
                <g id="Group-17" transform="translate(384.000000, 0.000000)">
                    <g id="Group-3">
                        <mask id="mask-2" fill="white">
                            <use xlink:href="#path-1"></use>
                        </mask>
                        <g id="Clip-2"></g>
                        <path d="M22.9998516,-0.000296774194 C10.2971742,0.00044516129 -0.000148387097,10.2977677 -0.000148387097,22.9997032 C-0.000148387097,35.7023806 10.2971742,45.9997032 22.9998516,45.9997032 C35.702529,45.9997032 45.9998516,35.7023806 45.9998516,22.9997032 C45.9998516,10.2977677 35.702529,0.00044516129 22.9998516,-0.000296774194" id="Fill-1" fill="#FFFFFF" mask="url(#mask-2)"></path>
                    </g>
                    <path d="M16.6502935,13.1907968 L32.3207129,13.1907968 C32.6093258,13.2508935 32.9016484,13.2991194 33.1872935,13.3740548 C35.5258742,13.9802161 37.1529387,16.1429581 37.1573903,18.6655387 C37.1633258,22.1296355 37.1603581,25.5937323 37.1559065,29.057829 C37.1551645,29.3546032 37.1314226,29.6550871 37.0831968,29.9481516 C36.6395194,32.6168935 34.4322613,34.5622484 31.7234548,34.4999258 C28.6659387,34.4287 25.6054548,34.486571 22.5471968,34.4769258 C22.2600677,34.4754419 22.0812613,34.5674419 21.9106161,34.7959581 C21.0692613,35.9229581 20.2115839,37.0380871 19.3568742,38.1547 C18.9540032,38.6814742 18.4480032,38.8587968 17.9063903,38.6733129 C17.3855516,38.4937645 17.0531645,37.9966677 17.0516806,37.3786355 C17.0487129,36.5254097 17.0442613,35.6729258 17.0546484,34.8204419 C17.0576161,34.5822806 16.9952935,34.4791516 16.7356161,34.4717323 C15.4631968,34.4324097 14.3836806,33.9241839 13.482229,33.0457323 C12.3648742,31.956571 11.8277129,30.6017968 11.8180677,29.057829 C11.7980355,25.8177968 11.8099065,22.5770226 11.8143581,19.3369903 C11.8151,18.9014742 11.8343903,18.4644742 11.8685194,18.0297 C12.0421323,15.832829 13.6847774,13.8904419 15.8141323,13.3614419 C16.0901323,13.2931839 16.3713258,13.2471839 16.6502935,13.1907968" id="Fill-4" fill="#FFDFE2"></path>
                    <g id="Group-8">
                        <mask id="mask-4" fill="white">
                            <use xlink:href="#path-3"></use>
                        </mask>
                        <g id="Clip-7"></g>
                        <path d="M38.7779258,38.7781484 C34.738829,42.8157613 29.1631839,45.3138581 22.9999258,45.3138581 C16.8374097,45.3138581 11.2610226,42.8157613 7.22192581,38.7781484 C3.18357097,34.7390516 0.686958065,29.1626645 0.686958065,22.9994065 C0.686958065,16.8376323 3.18357097,11.2612452 7.22192581,7.22214839 C11.2610226,3.18305161 16.8374097,0.68643871 22.9999258,0.68643871 C29.1631839,0.68643871 34.738829,3.18305161 38.7779258,7.22214839 C42.8162806,11.2612452 45.3136355,16.8376323 45.3136355,22.9994065 C45.3136355,29.1626645 42.8162806,34.7390516 38.7779258,38.7781484 M22.9999258,-0.000593548387 C10.2972484,0.000148387097 -7.41935484e-05,10.297471 -7.41935484e-05,22.9994065 C-7.41935484e-05,35.7020839 10.2972484,45.9994065 22.9999258,45.9994065 C35.7026032,45.9994065 45.9999258,35.7020839 45.9999258,22.9994065 C45.9999258,10.297471 35.7026032,0.000148387097 22.9999258,-0.000593548387" id="Fill-6" fill="#EE365D" mask="url(#mask-4)"></path>
                    </g>
                    <path d="M14.5889,11.7069258 L14.5889,12.0222484 L30.2585774,12.0222484 L30.2585774,11.7069258 L30.194771,12.015571 C30.4922871,12.0771516 30.7786742,12.1246355 31.045771,12.1951194 C33.2404161,12.7641839 34.7747387,14.7948613 34.7806742,17.1824097 C34.7829,18.5713129 34.7836419,19.9609581 34.7836419,21.3506032 C34.7836419,23.4243129 34.7814161,25.4987645 34.7784484,27.5732161 C34.7784484,27.8544097 34.7561903,28.137829 34.7101903,28.4123452 C34.2939645,30.898571 32.2803516,32.6999903 29.7881903,32.7022161 L29.6679968,32.7007323 C28.4653194,32.6725387 27.2619,32.6643774 26.0592226,32.6643774 C24.4410613,32.6643774 22.8243839,32.6792161 21.2099323,32.6792161 C20.9688032,32.6792161 20.7269323,32.6792161 20.4858032,32.6784742 L20.4850613,32.9930548 L20.4917387,32.6784742 L20.4783839,32.6784742 C20.304029,32.6777323 20.1326419,32.7074097 19.9783194,32.7860548 C19.8232548,32.8654419 19.6993516,32.9848935 19.5962226,33.1236355 C18.7563516,34.2476677 17.9001581,35.3620548 17.0454484,36.4801516 C16.7820613,36.8169903 16.5260935,36.9431194 16.2545452,36.9453452 C16.1588355,36.9453452 16.0571903,36.9282806 15.9473839,36.8904419 C15.5638032,36.7568935 15.3115452,36.4007645 15.3048677,35.8940226 C15.3041258,35.4436677 15.3019,34.9947968 15.3019,34.5466677 C15.3019,34.1437968 15.3033839,33.7416677 15.3085774,33.3402806 L15.3085774,33.3217323 C15.3070935,33.1837323 15.2967065,33.0175387 15.1646419,32.8632161 C15.0993516,32.7890226 15.0125452,32.738571 14.9301903,32.7118613 C14.8478355,32.6844097 14.7669645,32.6755065 14.6838677,32.6725387 C13.4915774,32.6332161 12.4981258,32.1680226 11.6404484,31.335571 C10.5839323,30.3013129 10.0838677,29.0444742 10.0719968,27.5717323 C10.0630935,26.1932161 10.0608677,24.8154419 10.0608677,23.4376677 C10.0608677,21.5761516 10.0653194,19.7153774 10.0682871,17.8538613 C10.0682871,17.4272484 10.0875774,16.9984097 10.1217065,16.5710548 C10.2789968,14.5144097 11.8370613,12.6751516 13.8284161,12.1839903 C14.0873516,12.1194419 14.3640935,12.0741839 14.6512226,12.015571 L14.5889,11.7069258 L14.5889,12.0222484 L14.5889,11.7069258 L14.5265774,11.3975387 C14.255029,11.4524419 13.9693839,11.4991839 13.6755774,11.5718935 C11.4089645,12.1387323 9.68099677,14.1827645 9.49254516,16.5213452 C9.45767419,16.9635387 9.43838387,17.4087 9.43764194,17.8531194 C9.43467419,19.7138935 9.43022258,21.5754097 9.43022258,23.4376677 C9.43022258,24.8161839 9.43319032,26.1954419 9.44135161,27.5761839 C9.44802903,29.1906355 10.023029,30.6433452 11.2004806,31.7874097 C12.1464484,32.7126032 13.312029,33.2638613 14.6645774,33.3024419 L14.7313516,33.3098613 L14.7573194,33.2341839 L14.7061258,33.2942806 L14.7313516,33.3098613 L14.7573194,33.2341839 L14.7061258,33.2942806 L14.7691903,33.2193452 L14.6727387,33.2482806 L14.7061258,33.2942806 L14.7691903,33.2193452 L14.6727387,33.2482806 L14.6779323,33.3217323 L14.6779323,33.3336032 C14.6727387,33.7372161 14.6712548,34.1423129 14.6712548,34.5466677 C14.6712548,34.9970226 14.6734806,35.4466355 14.6749645,35.8955065 C14.6719968,36.6240871 15.083771,37.2636355 15.7426097,37.4877 C15.911771,37.544829 16.0831581,37.576004 16.2545452,37.576004 C16.7531258,37.5782161 17.2094161,37.3081516 17.5455129,36.8629903 C18.4002226,35.7456355 19.2579,34.6297645 20.1014806,33.5005387 C20.1682548,33.4122484 20.2172226,33.3729258 20.2639645,33.3484419 C20.3114484,33.3254419 20.3700613,33.3091194 20.4783839,33.3083774 L20.4783839,33.3083774 L20.4850613,33.3083774 L20.4843194,33.3083774 C20.7261903,33.3091194 20.9680613,33.3098613 21.2099323,33.3098613 C22.8280935,33.3098613 24.444771,33.2957645 26.0592226,33.2957645 C27.2589323,33.2957645 28.4571581,33.3031839 29.6546419,33.3313774 L29.7881903,33.3321194 C32.5971581,33.3336032 34.8756419,31.2836355 35.3326742,28.5154742 C35.3846097,28.2046032 35.4090935,27.8877968 35.4090935,27.5747 C35.4120613,25.4995065 35.4142871,23.4250548 35.4142871,21.3506032 C35.4142871,19.9609581 35.4135452,18.570571 35.4105774,17.1809258 C35.4076097,14.522571 33.6885452,12.2292484 31.2045452,11.5852484 C30.9010935,11.5058613 30.6035774,11.4568935 30.3231258,11.3982806 L30.2912226,11.3916032 L30.2585774,11.3916032 L14.5889,11.3916032 L14.5577387,11.3916032 L14.5265774,11.3975387 L14.5889,11.7069258 Z" id="Fill-9" fill="#EE365D"></path>
                    <path d="M25.6364677,24.9618258 L25.6438871,24.7741161 C25.645371,24.6324065 25.622371,24.5159226 25.5823065,24.4550839 C25.5422419,24.3972129 25.4969839,24.3556645 25.3300484,24.3415677 L25.3278226,24.3408258 L25.2959194,24.3400839 C25.1460484,24.3482452 25.1223065,24.3779226 25.0681452,24.4602774 C25.0191774,24.5456 24.9887581,24.7043742 24.9672419,24.8809548 C24.794371,26.2238581 23.782371,27.1416323 22.4965968,27.1371806 L22.494371,27.1371806 C21.2078548,27.1416323 20.1995645,26.2246 20.0252097,24.8779871 C20.0029516,24.7021484 19.9725323,24.5448581 19.9228226,24.4595355 C19.8694032,24.3779226 19.8441774,24.3475032 19.6965323,24.3400839 L19.6601774,24.3408258 C19.4947258,24.3564065 19.4487258,24.3979548 19.4086613,24.4550839 C19.3685968,24.5151806 19.3463387,24.6294387 19.3470627,24.7704065 C19.3470627,24.8312452 19.3507903,24.8965355 19.3552419,24.9633097 C19.4620806,26.5295355 20.8584032,27.8197613 22.4639516,27.8256981 L22.4825,27.8256981 C24.1236613,27.8271806 25.5318548,26.5443742 25.6364677,24.9618258" id="Fill-11" fill="#EE365D"></path>
                    <path d="M20.2958045,19.1654548 L20.2943097,19.1291 C20.1845032,18.1467774 19.3527935,17.5131645 18.4572774,17.5116806 C18.070729,17.5116806 17.6745355,17.6303903 17.3176645,17.8945194 C16.9229548,18.1905516 16.5171161,18.3151968 16.1105355,18.3137129 C15.8426968,18.3137129 15.5756,18.2617774 15.3025677,18.1809065 C15.2766,18.1727452 15.242471,18.1660677 15.2142774,18.1593903 C15.4880516,18.4242613 15.7603419,18.6898742 16.0356,18.9517774 C16.1676645,19.0771645 16.3123419,19.1973581 16.4585032,19.3264548 C16.5957613,19.4481323 16.7330194,19.5698097 16.8695355,19.6914871 C17.0268258,19.5267774 17.1729871,19.3872935 17.1982129,19.2722935 C17.2827935,18.9821968 17.404471,18.7247452 17.6018258,18.5318419 C17.7976968,18.3404226 18.070729,18.2283903 18.3971806,18.2246806 L18.3971806,18.2239387 L18.4008903,18.2239387 L18.4008903,18.2239387 L18.4283419,18.2239387 C18.760729,18.2224548 19.0500839,18.3203903 19.2622774,18.5147774 C19.4759548,18.7084226 19.6028258,18.9844226 19.6562452,19.3093903 C19.6785032,19.4511 19.7207935,19.5831645 19.7712452,19.6618097 C19.8268903,19.7419387 19.8595355,19.7604871 19.9211161,19.7634548 L20.0413097,19.7352613 C20.0583742,19.7352613 20.1474065,19.646229 20.2015677,19.5245516 C20.2594387,19.4051 20.2965355,19.2567129 20.2958045,19.1654548" id="Fill-13" fill="#EE365D"></path>
                    <path d="M28.2770161,19.6871097 C28.3452742,19.6448194 28.4179839,19.5847226 28.4654677,19.5379806 C28.6895323,19.3168839 28.8824355,19.0423677 29.1057581,18.7730452 C29.2801129,18.5630774 29.4552097,18.3568194 29.6303065,18.1498194 C29.3854677,18.2321742 29.1450806,18.2863355 28.911371,18.2863355 C28.3942419,18.2863355 27.9127258,18.0882387 27.4223065,17.7580774 C27.1448226,17.5718516 26.8428548,17.4887451 26.5386613,17.4887451 C25.6854355,17.4857871 24.8255323,18.1646581 24.6815968,19.1017226 C24.6645323,19.2093032 24.6511774,19.3154 24.6511774,19.4051742 C24.6511774,19.5134968 24.6712097,19.5921419 24.7053387,19.6396258 C24.7387258,19.6863677 24.7899194,19.7294 24.931629,19.7538839 L25.0162097,19.7620452 C25.1341774,19.7553677 25.161629,19.7301419 25.2187581,19.6500129 C25.2714355,19.5684 25.3122419,19.4229806 25.3485968,19.2590129 C25.4895645,18.6328194 25.9747903,18.1943355 26.5282742,18.1921097 C26.726371,18.1913677 26.9304032,18.2514645 27.1144032,18.3746258 C27.2991452,18.5000129 27.4082097,18.6810452 27.5039194,18.8546581 C27.5981452,19.0297548 27.6790161,19.2048516 27.7725,19.3339484 C27.898629,19.5172065 28.0447903,19.6989806 28.1568226,19.7442387 L28.1850161,19.7345935 L28.2770161,19.6871097 Z" id="Fill-15" fill="#EE365D"></path>
                </g>
            </g>
        </g>
    </g>
</svg>